# xmcd CD database file
#
# Track frame offsets:
#	150
#	3610
#	23670
#	39655
#	53472
#	69782
#	94840
#	128430
#	145952
#	159747
#	176252
#	200317
#	228255
#	243217
#	270912
#
# Disc length: 3668 seconds
#
# Revision: 2
# Processed by: cddbd v1.5.2PL0 Copyright (c) Steve Scherf et al.
# Submitted via: CDex 1.51
#
DISCID=b00e520f
DTITLE=Woody Herman - Vol. 110 - Woody Herman and his Orchestra 1965
DYEAR=1966
DGENRE=Jazz
TTITLE0=Blue Flame (theme)
TTITLE1=The Preacher
TTITLE2=Wailing in the Wood
TTITLE3=Four Brothers
TTITLE4=Early Autumn
TTITLE5=Northwest Passage
TTITLE6=Watermelon Man
TTITLE7=Somewhere
TTITLE8=Hallelujah Time
TTITLE9=Satin Doll
TTITLE10=I Remember Clifford
TTITLE11=Rose Room
TTITLE12=23 Red
TTITLE13=Caldonia
TTITLE14=Blue Flame (theme)
EXTD=YEAR: 1966
EXTT0=
EXTT1=
EXTT2=
EXTT3=
EXTT4=
EXTT5=
EXTT6=
EXTT7=
EXTT8=
EXTT9=
EXTT10=
EXTT11=
EXTT12=
EXTT13=
EXTT14=
PLAYORDER=
